<?xml version="1.0" standalone="no"?>
<!DOCTYPE svg PUBLIC "-//W3C//DTD SVG 20010904//EN"
 "http://www.w3.org/TR/2001/REC-SVG-20010904/DTD/svg10.dtd">
<svg version="1.0" xmlns="http://www.w3.org/2000/svg"
 width="700.000000pt" height="700.000000pt" viewBox="0 0 700.000000 700.000000"
 preserveAspectRatio="xMidYMid meet">
<metadata>
Created by potrace 1.11, written by Peter Selinger 2001-2013
</metadata>
<g transform="translate(0.000000,700.000000) scale(0.100000,-0.100000)"
fill="#000000" stroke="none">
<path d="M1370 6827 c-299 -32 -544 -269 -586 -567 -8 -60 -8 -1000 0 -1070
33 -275 251 -507 531 -566 51 -10 -42 -12 -585 -13 -607 -1 -647 -2 -675 -19
-45 -28 -60 -63 -49 -114 13 -62 56 -88 146 -88 l68 0 0 -665 c-1 -515 -3
-665 -13 -666 -7 -1 -38 -2 -70 -4 -70 -3 -97 -16 -121 -56 -19 -33 -17 -81 5
-117 31 -50 28 -49 736 -48 364 0 659 -2 655 -5 -4 -4 -27 -9 -52 -12 -157
-19 -335 -82 -490 -175 -347 -208 -590 -582 -638 -982 -13 -107 -6 -313 13
-400 9 -41 18 -84 20 -94 13 -58 53 -164 101 -261 186 -380 549 -647 979 -720
92 -16 303 -17 2721 -17 1441 0 2636 3 2654 7 84 18 152 96 165 187 16 111
-65 224 -176 243 -18 3 -36 8 -39 11 -3 3 -5 403 -5 889 l0 883 38 6 c105 17
174 95 182 203 7 94 -37 168 -125 213 -44 23 -50 23 -367 23 -178 1 -322 2
-320 3 1 2 15 5 30 8 222 40 415 240 444 460 9 67 8 799 -1 852 -18 107 -82
222 -171 307 -57 55 -185 121 -260 135 -36 7 55 10 323 12 204 1 375 3 380 4
78 18 153 86 172 157 18 68 5 140 -36 193 -51 67 -100 88 -201 90 -66 1 -83 4
-84 16 -1 8 -2 308 -3 666 l-1 652 90 4 c97 5 131 17 179 64 46 46 60 83 61
154 0 53 -5 73 -27 110 -32 55 -78 91 -138 107 -29 8 -5386 8 -5460 0z"/>
</g>
</svg>
